<?xml version="1.0" standalone="no"?>
<!DOCTYPE svg PUBLIC "-//W3C//DTD SVG 20010904//EN"
 "http://www.w3.org/TR/2001/REC-SVG-20010904/DTD/svg10.dtd">
<svg version="1.0" xmlns="http://www.w3.org/2000/svg"
 width="750.000000pt" height="500.000000pt" viewBox="0 0 750.000000 500.000000"
 preserveAspectRatio="xMidYMid meet">
<metadata>
Created by potrace 1.16, written by Peter Selinger 2001-2019
</metadata>
<g transform="translate(0.000000,500.000000) scale(0.100000,-0.100000)"
fill="#000000" stroke="none">
<path d="M2987 4063 c-3 -2 -17 -6 -33 -9 -43 -8 -129 -100 -145 -154 -9 -32
-13 -154 -14 -432 0 -213 -4 -391 -8 -394 -4 -4 -8 44 -9 107 l-2 114 -5 -110
c-4 -60 -3 -114 2 -120 10 -13 9 -63 -2 -69 -5 -3 -17 7 -26 22 -34 52 -92 92
-135 92 -32 0 -78 -30 -82 -55 -3 -11 -4 -73 -4 -137 1 -106 -1 -116 -19 -124
-18 -8 -20 -17 -17 -74 4 -77 -12 -126 -55 -173 -17 -19 -29 -38 -25 -42 3 -3
2 -9 -3 -13 -27 -19 -142 -225 -137 -244 1 -5 -2 -8 -8 -8 -5 0 -10 -6 -10
-13 0 -8 -16 -45 -35 -83 -113 -226 -234 -488 -229 -495 3 -5 0 -8 -8 -7 -8 2
-29 -29 -51 -74 -30 -61 -40 -96 -48 -165 -34 -305 -145 -749 -230 -916 -46
-90 -239 -307 -277 -310 -11 0 -19 -4 -16 -8 2 -4 -3 -10 -12 -13 -8 -3 -12
-10 -9 -16 3 -6 -4 -10 -17 -10 -16 0 -19 -3 -10 -9 10 -6 3 -13 -23 -25 -21
-10 -33 -22 -29 -28 4 -6 3 -8 -3 -5 -5 3 -25 -9 -43 -28 l-34 -35 3162 0
3162 0 0 1075 c0 936 -2 1075 -15 1075 -8 0 -58 -7 -112 -14 -54 -8 -149 -22
-211 -30 -64 -9 -129 -24 -151 -36 -54 -27 -111 -83 -111 -109 0 -23 -47 -49
-130 -71 -29 -8 -57 -25 -80 -50 -62 -67 -171 -107 -354 -130 -118 -15 -242
-55 -284 -91 -18 -16 -40 -29 -48 -29 -29 0 -158 -32 -284 -71 -171 -52 -220
-64 -330 -83 -150 -26 -176 -34 -253 -74 -40 -21 -95 -46 -124 -56 -29 -10
-69 -26 -90 -37 -20 -10 -52 -19 -71 -19 -18 0 -32 -3 -30 -7 32 -71 51 -102
73 -121 16 -14 24 -29 21 -38 -4 -10 -2 -12 6 -8 6 4 8 3 4 -4 -3 -6 -1 -14 5
-17 20 -13 20 3 -1 39 -11 20 -20 44 -21 54 0 10 -3 12 -6 5 -2 -7 -9 -13 -14
-13 -6 0 -7 5 -3 12 4 7 3 8 -4 4 -13 -8 -16 12 -6 38 9 23 29 20 48 -7 8 -12
13 -15 10 -5 -5 14 2 14 65 -5 66 -19 82 -31 43 -33 -31 -2 -82 -28 -83 -44
-1 -8 -2 -22 -3 -30 -1 -8 -5 -21 -9 -27 -4 -7 -3 -21 3 -32 18 -34 12 -126
-11 -165 -37 -63 -77 -78 -159 -58 -67 16 -88 8 -88 -34 0 -30 5 -36 35 -49
20 -8 50 -15 67 -15 69 0 132 -34 158 -85 7 -13 -2 -8 -24 13 -38 36 -113 64
-148 55 -12 -3 -39 0 -61 7 l-39 13 0 62 0 62 48 -8 c112 -20 146 -20 167 -2
40 36 55 71 55 130 0 66 -13 90 -80 153 -25 23 -38 38 -30 34 8 -4 25 -16 37
-27 13 -11 25 -18 29 -15 9 10 -38 48 -66 54 -104 21 -105 22 -105 66 0 32 -6
45 -30 65 -23 19 -25 23 -10 19 11 -2 63 -8 115 -11 88 -6 97 -5 122 15 51 39
66 150 31 215 -16 30 -82 85 -101 85 -15 0 -15 -2 -2 -10 8 -5 11 -10 5 -10
-5 0 -16 4 -23 9 -11 7 -10 9 3 15 14 5 12 12 -17 53 -60 86 -97 123 -120 123
-17 0 -18 17 -18 334 l0 333 40 28 c128 89 165 198 91 269 -33 32 -89 50 -107
36 -19 -17 -24 12 -24 154 0 92 4 136 13 145 10 11 9 12 -2 6 -11 -6 -13 58
-10 396 4 399 4 405 -18 444 -12 22 -36 54 -55 72 -58 56 -94 65 -308 74 -195
9 -1315 11 -1323 2z m1431 -633 l182 0 0 -197 c0 -109 -3 -329 -7 -489 l-6
-292 -36 11 c-47 14 -352 12 -461 -3 -47 -6 -93 -12 -103 -13 -10 -1 -21 -7
-25 -13 -4 -6 -28 -14 -54 -18 -27 -4 -48 -12 -48 -18 0 -5 6 -8 13 -5 13 5
480 11 645 8 l73 -1 -2 -54 c-2 -51 -4 -54 -32 -60 -16 -3 -42 -6 -58 -6 -15
0 -31 -4 -34 -10 -3 -6 -32 -10 -63 -10 -59 0 -272 -14 -472 -30 -113 -10
-197 -21 -415 -55 -174 -27 -513 -65 -587 -65 -36 0 -38 2 -38 31 0 35 22 61
47 58 18 -3 123 6 218 18 48 6 49 6 20 15 -16 5 -88 9 -158 9 l-128 0 3 64 3
65 120 5 c66 2 163 7 215 10 118 6 382 15 475 15 56 1 66 3 51 12 -11 6 -45
10 -77 9 -32 -1 -60 2 -63 7 -3 5 -26 8 -51 8 -25 -1 -46 2 -48 6 -3 12 -307
40 -354 33 -53 -8 -64 -22 -21 -28 18 -3 8 -2 -22 1 -86 8 -146 5 -210 -10
-13 -3 -15 59 -18 501 l-2 504 672 -6 c370 -4 755 -7 856 -7z m166 -1243 l5
-46 -37 -7 c-20 -4 -42 -11 -49 -16 -13 -10 -129 -6 -140 5 -11 12 -43 8 -44
-5 0 -10 -2 -10 -6 0 -5 14 -49 16 -58 3 -3 -5 5 -12 17 -14 13 -2 1 -5 -26
-6 -46 -1 -48 -2 -30 -15 18 -14 17 -15 -12 -14 -17 1 -36 -2 -43 -6 -6 -4
-11 -3 -11 2 0 6 7 13 16 16 9 4 14 9 11 13 -4 3 -12 1 -19 -4 -21 -16 -57
-22 -65 -11 -4 7 -11 5 -18 -6 -7 -9 -32 -21 -56 -25 -39 -8 -41 -10 -20 -16
21 -7 18 -10 -29 -30 -47 -20 -50 -23 -29 -30 22 -6 20 -8 -16 -15 -39 -8
-100 8 -133 33 -9 8 -12 7 -10 -3 5 -21 -66 -37 -87 -20 -13 11 -13 15 -3 21
11 7 11 9 0 9 -7 0 -22 -8 -33 -18 -10 -10 -29 -18 -42 -16 -12 1 -31 3 -41 3
-11 1 -16 4 -13 8 4 3 20 6 37 5 16 0 30 4 30 9 0 6 -19 8 -47 5 -27 -2 -52
-5 -57 -5 -4 -1 -6 -7 -3 -15 4 -9 -1 -16 -11 -19 -9 -2 28 -3 84 -2 67 1 106
-2 117 -10 15 -10 10 -13 -29 -19 -25 -3 -57 -3 -71 1 -18 4 -24 2 -19 -6 4
-6 2 -11 -3 -11 -6 0 -11 5 -11 10 0 6 -5 10 -10 10 -6 0 -5 -8 2 -20 11 -18
22 -20 83 -19 39 2 80 -3 91 -9 12 -6 24 -8 28 -5 3 3 6 1 6 -5 0 -6 10 -12
23 -14 17 -3 14 -6 -15 -12 -21 -5 -38 -12 -38 -16 0 -5 -14 -4 -32 1 -33 9
-53 4 -24 -7 25 -9 19 -24 -10 -24 -15 0 -23 4 -19 11 5 7 -8 9 -37 7 -31 -2
-42 -7 -40 -17 3 -12 0 -12 -12 -2 -8 7 -19 10 -24 8 -4 -3 -34 -8 -66 -11
-33 -2 -63 -10 -67 -17 -6 -10 -13 -10 -31 -2 -21 9 -127 1 -147 -12 -4 -2
-17 3 -31 11 -24 12 -21 13 35 14 55 1 58 2 41 15 -23 17 -14 20 15 4 19 -10
19 -9 9 10 -6 12 -7 21 -1 21 5 0 12 -7 15 -16 5 -13 9 -14 21 -4 8 7 15 9 15
4 0 -5 4 -3 9 4 5 9 17 11 36 6 29 -7 29 -7 5 -16 -30 -11 -20 -21 14 -12 17
4 25 11 22 20 -4 9 3 13 24 11 17 -1 30 -8 30 -14 0 -15 17 -17 22 -4 2 5 32
11 68 13 45 2 70 8 82 20 10 10 14 18 9 18 -5 0 -17 3 -27 7 -11 4 -15 3 -11
-4 5 -8 -17 -11 -66 -11 -39 0 -95 -4 -122 -9 -28 -5 -63 -6 -78 -2 -17 4 -27
3 -27 -3 0 -7 -5 -6 -14 1 -7 6 -21 9 -30 5 -9 -3 -16 -3 -16 0 0 4 14 12 30
17 17 6 30 16 30 22 0 7 -4 7 -12 -1 -7 -7 -22 -12 -34 -12 -13 0 -25 -4 -28
-9 -3 -5 -18 -12 -33 -16 -16 -3 -35 -12 -43 -19 -20 -18 -84 -18 -69 0 8 10
0 12 -36 9 -57 -5 -66 -11 -34 -25 20 -9 15 -10 -24 -5 -26 2 -46 1 -44 -3 3
-4 -11 -7 -32 -8 -20 -1 -28 1 -18 3 9 3 17 9 17 14 0 5 7 9 16 9 8 0 12 5 9
10 -4 6 -25 9 -46 6 -29 -3 -42 0 -46 10 -7 19 6 32 16 16 9 -16 127 -10 190
9 33 10 49 10 82 -1 35 -12 42 -12 50 1 6 9 12 10 17 4 5 -7 18 -7 42 2 35 12
24 18 -29 13 -16 -1 -21 2 -16 10 5 8 22 10 47 7 24 -3 54 1 75 10 33 13 37
13 45 -1 11 -20 34 -21 41 -2 4 10 1 13 -7 10 -19 -7 -32 16 -15 27 19 12 13
11 -50 -6 -30 -8 -58 -12 -63 -9 -4 3 -14 2 -20 -3 -18 -11 -69 -13 -62 -2 3
5 -17 9 -45 9 -37 0 -53 -5 -60 -17 -6 -10 -11 -13 -11 -7 0 18 -84 11 -104
-8 -22 -22 -40 -23 -32 -3 5 13 -1 15 -32 9 -20 -3 -39 -7 -42 -8 -5 -1 -10 9
-10 23 0 5 34 12 75 16 41 4 77 11 81 16 3 5 16 9 30 9 28 0 31 14 7 30 -15
10 -14 11 9 7 15 -2 25 0 22 4 -5 9 48 13 114 9 17 -1 32 3 32 9 0 7 10 9 25
5 19 -5 25 -2 25 11 0 12 5 15 17 11 9 -4 20 -1 24 6 5 8 39 12 105 12 53 1
89 2 80 4 -26 5 -8 22 23 22 45 0 91 -12 85 -21 -3 -5 11 -9 31 -9 22 0 34 4
30 10 -4 6 13 10 44 10 33 0 53 5 58 14 9 16 70 30 228 51 61 9 144 20 185 26
41 6 93 12 115 13 22 2 47 6 55 10 14 6 170 24 177 21 2 -1 5 -22 7 -48z
m-1805 -189 c2 -198 0 -220 -14 -208 -10 8 -15 9 -15 1 0 -6 -7 -11 -15 -11
-8 0 -15 -4 -15 -9 0 -5 9 -7 20 -4 35 9 21 -15 -16 -27 -19 -7 -36 -10 -38
-8 -1 1 3 64 9 138 8 92 20 164 39 225 15 50 28 98 29 108 1 9 4 17 8 17 4 0
7 -100 8 -222z m1731 -292 c0 -9 9 -13 24 -12 24 3 55 -9 46 -17 -28 -24 -164
-79 -222 -90 -74 -14 -238 -23 -227 -13 4 5 62 12 124 16 6 0 3 5 -5 10 -13 9
-13 10 0 11 8 1 21 1 28 0 6 -1 12 3 12 10 0 7 10 9 28 5 20 -5 23 -4 12 3
-13 9 -12 12 4 24 15 11 28 12 58 4 28 -7 43 -6 51 2 8 8 3 11 -22 11 -22 0
-31 4 -28 13 2 6 12 11 21 9 10 -2 24 2 31 8 8 7 19 9 24 6 5 -4 12 -2 16 4 9
15 25 12 25 -4z m-275 -160 c-22 -7 -56 -21 -75 -32 -19 -10 -42 -20 -50 -21
-31 -5 -106 -26 -140 -40 -19 -7 -51 -16 -71 -18 -32 -4 -35 -2 -34 18 2 19 7
22 48 22 25 0 49 3 53 8 4 4 15 7 25 7 10 0 24 8 31 18 26 36 74 49 193 50
l60 1 -40 -13z m-440 -596 c101 -49 101 -181 -1 -231 -136 -65 -255 100 -148
206 18 19 46 35 61 38 15 2 32 5 37 6 5 0 28 -8 51 -19z m-651 -49 c15 -24 -7
-41 -58 -43 l-51 -2 53 -3 c44 -3 52 -7 52 -24 0 -12 -7 -19 -19 -19 -10 0
-37 -6 -59 -14 -53 -19 -96 -24 -100 -11 -2 6 34 18 80 27 l83 17 -82 -5 c-53
-3 -83 -1 -83 6 0 5 15 10 33 10 27 1 29 2 14 11 -10 6 -25 8 -33 5 -17 -6
-29 17 -20 39 4 12 25 15 95 15 49 0 92 -4 95 -9z"/>
<path d="M3693 931 c-44 -20 -60 -40 -63 -81 -4 -45 0 -58 26 -89 81 -97 236
7 183 122 -10 22 -75 67 -95 67 -5 0 -28 -9 -51 -19z m90 -10 c13 -5 32 -26
41 -46 47 -99 -77 -184 -155 -106 -77 78 8 192 114 152z"/>
<path d="M7365 2799 c-27 -4 -122 -8 -210 -8 -225 -2 -367 -16 -382 -38 -28
-37 -25 -38 192 -50 102 -6 173 -6 195 1 19 5 104 8 188 7 l152 -3 0 51 0 50
-42 -1 c-24 -1 -65 -5 -93 -9z"/>
<path d="M1759 2426 c-9 -10 -422 -38 -602 -42 -104 -2 -225 -8 -270 -14 -45
-5 -134 -10 -199 -10 -65 0 -175 -5 -245 -10 -210 -17 -366 -31 -405 -36 l-38
-6 0 -250 0 -250 43 25 c65 37 102 46 227 52 202 9 350 46 404 100 50 50 86
64 199 80 212 29 274 51 186 66 -20 3 -46 13 -59 22 -14 9 -36 17 -50 18 -23
1 -23 2 5 8 17 4 40 13 52 20 24 12 195 45 298 56 33 4 106 18 161 31 56 13
112 24 124 24 13 0 62 9 109 20 47 11 122 27 166 37 76 16 132 43 118 57 -7 7
-217 9 -224 2z"/>
<path d="M181 766 c-18 -21 -111 -29 -132 -11 -9 9 -24 13 -33 9 -14 -5 -16
-26 -16 -155 0 -82 3 -149 8 -149 4 0 16 7 26 15 13 10 43 15 83 15 84 0 113
18 113 71 0 27 6 45 20 56 37 32 26 46 -30 40 -31 -4 -48 -2 -45 3 4 6 15 10
26 10 14 0 19 7 19 28 0 15 5 33 10 38 15 15 1 44 -20 44 -10 0 -23 -6 -29
-14z"/>
<path d="M180 363 c-38 -15 -41 -73 -5 -100 27 -20 23 -36 -12 -47 -17 -5 -27
1 -48 29 -20 26 -35 35 -56 35 -22 0 -32 6 -39 25 -5 14 -12 25 -15 25 -3 0
-5 -74 -5 -165 l0 -165 237 2 236 3 17 30 c10 18 39 42 75 61 32 17 61 36 63
42 6 18 -74 62 -112 62 -19 0 -36 -4 -38 -9 -1 -5 -10 -11 -18 -12 -23 -5
-149 32 -161 47 -6 8 -20 14 -30 14 -25 0 -35 21 -15 32 10 6 16 22 16 47 0
32 -4 40 -22 45 -27 7 -47 7 -68 -1z"/>
<path d="M1040 300 c0 -5 -16 -12 -35 -16 -52 -9 -61 -26 -32 -60 22 -25 27
-27 41 -14 20 16 106 16 136 0 11 -6 20 -7 21 -3 0 4 2 16 4 27 6 32 -15 64
-47 70 -45 9 -88 7 -88 -4z"/>
<path d="M664 60 l1 -60 73 0 c68 0 75 2 102 30 16 16 40 30 52 30 13 0 29 4
37 9 11 7 10 11 -7 20 -20 10 -168 31 -228 31 l-32 0 2 -60z"/>
</g>
</svg>
